<mxfile host="app.diagrams.net" modified="2023-09-29T14:58:17.842Z" agent="Mozilla/5.0 (Windows NT 10.0; Win64; x64) AppleWebKit/537.36 (KHTML, like Gecko) Chrome/117.0.0.0 Safari/537.36" etag="TbQSghX1EI5Mn2DLWtdx" version="22.0.0" type="device">
  <diagram id="C5RBs43oDa-KdzZeNtuy" name="Page-1">
    <mxGraphModel dx="1434" dy="758" grid="1" gridSize="10" guides="1" tooltips="1" connect="1" arrows="1" fold="1" page="1" pageScale="1" pageWidth="1169" pageHeight="827" background="#FFFFFF" math="0" shadow="0">
      <root>
        <object label="" id="WIyWlLk6GJQsqaUBKTNV-0">
          <mxCell />
        </object>
        <mxCell id="WIyWlLk6GJQsqaUBKTNV-1" parent="WIyWlLk6GJQsqaUBKTNV-0" />
        <mxCell id="eObDILiY486qWF8WniHs-0" value="Shape" style="swimlane;fontStyle=1;align=center;verticalAlign=top;childLayout=stackLayout;horizontal=1;startSize=26;horizontalStack=0;resizeParent=1;resizeParentMax=0;resizeLast=0;collapsible=1;marginBottom=0;fillColor=none;strokeColor=#6c8ebf;fontSize=11;spacingTop=0;spacing=6;spacingLeft=0;spacingBottom=0;spacingRight=0;html=1;fontFamily=Helvetica;" parent="WIyWlLk6GJQsqaUBKTNV-1" vertex="1">
          <mxGeometry x="60" y="10" width="380" height="823" as="geometry">
            <mxRectangle x="395" y="210" width="100" height="30" as="alternateBounds" />
          </mxGeometry>
        </mxCell>
        <mxCell id="eObDILiY486qWF8WniHs-17" value="ATTRIBUTS" style="text;align=center;fontStyle=1;verticalAlign=middle;spacingLeft=0;spacingRight=0;strokeColor=none;rotatable=0;points=[[0,0.5],[1,0.5]];portConstraint=eastwest;fontSize=11;spacingTop=0;spacing=5;spacingBottom=0;html=1;fillColor=none;fontFamily=Helvetica;" parent="eObDILiY486qWF8WniHs-0" vertex="1">
          <mxGeometry y="26" width="380" height="26" as="geometry" />
        </mxCell>
        <mxCell id="eObDILiY486qWF8WniHs-1" value="- _x : int" style="text;strokeColor=none;fillColor=none;align=left;verticalAlign=middle;spacingLeft=5;spacingRight=0;overflow=hidden;rotatable=0;points=[[0,0.5],[1,0.5]];portConstraint=eastwest;perimeterSpacing=0;fontSize=11;spacingTop=0;spacing=5;spacingBottom=0;html=1;horizontal=1;fontStyle=0;rounded=0;fontFamily=Helvetica;" parent="eObDILiY486qWF8WniHs-0" vertex="1">
          <mxGeometry y="52" width="380" height="23" as="geometry" />
        </mxCell>
        <mxCell id="eObDILiY486qWF8WniHs-4" value="- _y : int" style="text;strokeColor=none;fillColor=none;align=left;verticalAlign=middle;spacingLeft=5;spacingRight=0;overflow=hidden;rotatable=0;points=[[0,0.5],[1,0.5]];portConstraint=eastwest;perimeterSpacing=0;fontSize=11;spacingTop=0;spacing=5;spacingBottom=0;html=1;fontFamily=Helvetica;" parent="eObDILiY486qWF8WniHs-0" vertex="1">
          <mxGeometry y="75" width="380" height="23" as="geometry" />
        </mxCell>
        <mxCell id="eObDILiY486qWF8WniHs-5" value="- _txt : string" style="text;strokeColor=none;fillColor=none;align=left;verticalAlign=middle;spacingLeft=5;spacingRight=0;overflow=hidden;rotatable=0;points=[[0,0.5],[1,0.5]];portConstraint=eastwest;perimeterSpacing=0;fontSize=11;spacingTop=0;spacing=5;spacingBottom=0;html=1;fontFamily=Helvetica;" parent="eObDILiY486qWF8WniHs-0" vertex="1">
          <mxGeometry y="98" width="380" height="23" as="geometry" />
        </mxCell>
        <mxCell id="eObDILiY486qWF8WniHs-6" value="- _type : int" style="text;strokeColor=none;fillColor=none;align=left;verticalAlign=middle;spacingLeft=5;spacingRight=0;overflow=hidden;rotatable=0;points=[[0,0.5],[1,0.5]];portConstraint=eastwest;perimeterSpacing=0;fontSize=11;spacingTop=0;spacing=5;spacingBottom=0;html=1;fontFamily=Helvetica;" parent="eObDILiY486qWF8WniHs-0" vertex="1">
          <mxGeometry y="121" width="380" height="23" as="geometry" />
        </mxCell>
        <mxCell id="eObDILiY486qWF8WniHs-7" value="- _height : int" style="text;strokeColor=none;fillColor=none;align=left;verticalAlign=middle;spacingLeft=5;spacingRight=0;overflow=hidden;rotatable=0;points=[[0,0.5],[1,0.5]];portConstraint=eastwest;perimeterSpacing=0;fontSize=11;spacingTop=0;spacing=5;spacingBottom=0;html=1;fontFamily=Helvetica;" parent="eObDILiY486qWF8WniHs-0" vertex="1">
          <mxGeometry y="144" width="380" height="23" as="geometry" />
        </mxCell>
        <mxCell id="eObDILiY486qWF8WniHs-8" value="- _size : int" style="text;strokeColor=none;fillColor=none;align=left;verticalAlign=middle;spacingLeft=5;spacingRight=0;overflow=hidden;rotatable=0;points=[[0,0.5],[1,0.5]];portConstraint=eastwest;perimeterSpacing=0;fontSize=11;spacingTop=0;spacing=5;spacingBottom=0;html=1;fontFamily=Helvetica;" parent="eObDILiY486qWF8WniHs-0" vertex="1">
          <mxGeometry y="167" width="380" height="23" as="geometry" />
        </mxCell>
        <mxCell id="eObDILiY486qWF8WniHs-10" value="- _clickArea : int" style="text;strokeColor=none;fillColor=none;align=left;verticalAlign=middle;spacingLeft=5;spacingRight=0;overflow=hidden;rotatable=0;points=[[0,0.5],[1,0.5]];portConstraint=eastwest;perimeterSpacing=0;fontSize=11;spacingTop=0;spacing=5;spacingBottom=0;html=1;fontFamily=Helvetica;" parent="eObDILiY486qWF8WniHs-0" vertex="1">
          <mxGeometry y="190" width="380" height="23" as="geometry" />
        </mxCell>
        <mxCell id="eObDILiY486qWF8WniHs-9" value="- _allCoord : array" style="text;strokeColor=none;fillColor=none;align=left;verticalAlign=middle;spacingLeft=5;spacingRight=0;overflow=hidden;rotatable=0;points=[[0,0.5],[1,0.5]];portConstraint=eastwest;perimeterSpacing=0;fontSize=11;spacingTop=0;spacing=5;spacingBottom=0;html=1;fontFamily=Helvetica;" parent="eObDILiY486qWF8WniHs-0" vertex="1">
          <mxGeometry y="213" width="380" height="23" as="geometry" />
        </mxCell>
        <mxCell id="eObDILiY486qWF8WniHs-12" value="- _output : array" style="text;strokeColor=none;fillColor=none;align=left;verticalAlign=middle;spacingLeft=5;spacingRight=0;overflow=hidden;rotatable=0;points=[[0,0.5],[1,0.5]];portConstraint=eastwest;perimeterSpacing=0;fontSize=11;spacingTop=0;spacing=5;spacingBottom=0;html=1;fontFamily=Helvetica;" parent="eObDILiY486qWF8WniHs-0" vertex="1">
          <mxGeometry y="236" width="380" height="23" as="geometry" />
        </mxCell>
        <mxCell id="eObDILiY486qWF8WniHs-14" value="- _canvas : canvas" style="text;strokeColor=none;fillColor=none;align=left;verticalAlign=middle;spacingLeft=5;spacingRight=0;overflow=hidden;rotatable=0;points=[[0,0.5],[1,0.5]];portConstraint=eastwest;perimeterSpacing=0;fontSize=11;spacingTop=0;spacing=5;spacingBottom=0;html=1;fontFamily=Helvetica;" parent="eObDILiY486qWF8WniHs-0" vertex="1">
          <mxGeometry y="259" width="380" height="23" as="geometry" />
        </mxCell>
        <mxCell id="eObDILiY486qWF8WniHs-13" value="- _context : string" style="text;strokeColor=none;fillColor=none;align=left;verticalAlign=middle;spacingLeft=5;spacingRight=0;overflow=hidden;rotatable=0;points=[[0,0.5],[1,0.5]];portConstraint=eastwest;perimeterSpacing=0;fontSize=11;spacingTop=0;spacing=5;spacingBottom=0;html=1;fontFamily=Helvetica;" parent="eObDILiY486qWF8WniHs-0" vertex="1">
          <mxGeometry y="282" width="380" height="23" as="geometry" />
        </mxCell>
        <mxCell id="eObDILiY486qWF8WniHs-15" value="- _symbol : Image" style="text;strokeColor=none;fillColor=none;align=left;verticalAlign=middle;spacingLeft=5;spacingRight=0;overflow=hidden;rotatable=0;points=[[0,0.5],[1,0.5]];portConstraint=eastwest;perimeterSpacing=0;fontSize=11;spacingTop=0;spacing=5;spacingBottom=0;html=1;fontFamily=Helvetica;" parent="eObDILiY486qWF8WniHs-0" vertex="1">
          <mxGeometry y="305" width="380" height="23" as="geometry" />
        </mxCell>
        <mxCell id="eObDILiY486qWF8WniHs-11" value="- _symbolParam : array" style="text;strokeColor=none;fillColor=none;align=left;verticalAlign=middle;spacingLeft=5;spacingRight=0;overflow=hidden;rotatable=0;points=[[0,0.5],[1,0.5]];portConstraint=eastwest;perimeterSpacing=0;fontSize=11;spacingTop=0;spacing=5;spacingBottom=0;html=1;fontFamily=Helvetica;" parent="eObDILiY486qWF8WniHs-0" vertex="1">
          <mxGeometry y="328" width="380" height="23" as="geometry" />
        </mxCell>
        <mxCell id="eObDILiY486qWF8WniHs-18" value="CONSTRUCTEUR" style="text;align=center;fontStyle=1;verticalAlign=middle;spacingLeft=0;spacingRight=0;rotatable=0;points=[[0,0.5],[1,0.5]];portConstraint=eastwest;fillColor=none;perimeterSpacing=0;fontSize=11;spacingTop=0;spacing=5;spacingBottom=0;html=1;fontFamily=Helvetica;" parent="eObDILiY486qWF8WniHs-0" vertex="1">
          <mxGeometry y="351" width="380" height="24" as="geometry" />
        </mxCell>
        <mxCell id="eObDILiY486qWF8WniHs-3" value="+ Shape(canvas, x, y, txt)" style="text;strokeColor=none;fillColor=none;align=left;verticalAlign=top;spacingLeft=0;spacingRight=0;overflow=hidden;rotatable=0;points=[[0,0.5],[1,0.5]];portConstraint=eastwest;perimeterSpacing=0;fontSize=11;spacingTop=0;spacing=5;spacingBottom=0;html=1;fontFamily=Helvetica;" parent="eObDILiY486qWF8WniHs-0" vertex="1">
          <mxGeometry y="375" width="380" height="23" as="geometry" />
        </mxCell>
        <mxCell id="eObDILiY486qWF8WniHs-39" value="ENCAPSULATION" style="text;align=center;fontStyle=1;verticalAlign=middle;spacingLeft=0;spacingRight=0;rotatable=0;points=[[0,0.5],[1,0.5]];portConstraint=eastwest;fillColor=none;perimeterSpacing=0;fontSize=11;spacingTop=0;spacing=5;spacingBottom=0;html=1;fontFamily=Helvetica;" parent="eObDILiY486qWF8WniHs-0" vertex="1">
          <mxGeometry y="398" width="380" height="24" as="geometry" />
        </mxCell>
        <mxCell id="eObDILiY486qWF8WniHs-40" value="get&amp;amp;set(x, y, txt, type, height, width, size, clickArea, allCoord, output)" style="text;strokeColor=none;fillColor=none;align=left;verticalAlign=top;spacingLeft=0;spacingRight=0;overflow=hidden;rotatable=0;points=[[0,0.5],[1,0.5]];portConstraint=eastwest;perimeterSpacing=0;fontSize=11;spacingTop=0;spacing=5;spacingBottom=0;html=1;fontFamily=Helvetica;" parent="eObDILiY486qWF8WniHs-0" vertex="1">
          <mxGeometry y="422" width="380" height="23" as="geometry" />
        </mxCell>
        <mxCell id="eObDILiY486qWF8WniHs-41" value="METHODES SPECIFIQUES" style="text;align=center;fontStyle=1;verticalAlign=middle;spacingLeft=0;spacingRight=0;rotatable=0;points=[[0,0.5],[1,0.5]];portConstraint=eastwest;fillColor=none;perimeterSpacing=0;fontSize=11;spacingTop=0;spacing=5;spacingBottom=0;html=1;fontFamily=Helvetica;" parent="eObDILiY486qWF8WniHs-0" vertex="1">
          <mxGeometry y="445" width="380" height="24" as="geometry" />
        </mxCell>
        <mxCell id="eObDILiY486qWF8WniHs-43" value="+ array calculHeight(arrayOfTxt)" style="text;strokeColor=none;fillColor=none;align=left;verticalAlign=top;spacingLeft=0;spacingRight=0;overflow=hidden;rotatable=0;points=[[0,0.5],[1,0.5]];portConstraint=eastwest;perimeterSpacing=0;fontSize=11;spacingTop=0;spacing=5;spacingBottom=0;html=1;fontFamily=Helvetica;" parent="eObDILiY486qWF8WniHs-0" vertex="1">
          <mxGeometry y="469" width="380" height="23" as="geometry" />
        </mxCell>
        <mxCell id="eObDILiY486qWF8WniHs-44" value="+ array calculTxtSize(arrayOfTxt)" style="text;strokeColor=none;fillColor=none;align=left;verticalAlign=top;spacingLeft=0;spacingRight=0;overflow=hidden;rotatable=0;points=[[0,0.5],[1,0.5]];portConstraint=eastwest;perimeterSpacing=0;fontSize=11;spacingTop=0;spacing=5;spacingBottom=0;html=1;fontFamily=Helvetica;" parent="eObDILiY486qWF8WniHs-0" vertex="1">
          <mxGeometry y="492" width="380" height="23" as="geometry" />
        </mxCell>
        <mxCell id="eObDILiY486qWF8WniHs-45" value="+ array calculWidth(arrayOfTxt)" style="text;strokeColor=none;fillColor=none;align=left;verticalAlign=top;spacingLeft=0;spacingRight=0;overflow=hidden;rotatable=0;points=[[0,0.5],[1,0.5]];portConstraint=eastwest;perimeterSpacing=0;fontSize=11;spacingTop=0;spacing=5;spacingBottom=0;html=1;fontFamily=Helvetica;" parent="eObDILiY486qWF8WniHs-0" vertex="1">
          <mxGeometry y="515" width="380" height="23" as="geometry" />
        </mxCell>
        <mxCell id="eObDILiY486qWF8WniHs-46" value="+ array calculClickArea(arrayOfTxt)" style="text;strokeColor=none;fillColor=none;align=left;verticalAlign=top;spacingLeft=0;spacingRight=0;overflow=hidden;rotatable=0;points=[[0,0.5],[1,0.5]];portConstraint=eastwest;perimeterSpacing=0;fontSize=11;spacingTop=0;spacing=5;spacingBottom=0;html=1;fontFamily=Helvetica;" parent="eObDILiY486qWF8WniHs-0" vertex="1">
          <mxGeometry y="538" width="380" height="23" as="geometry" />
        </mxCell>
        <mxCell id="eObDILiY486qWF8WniHs-47" value="+ array calculAllCoord(clickArea,width, posX)" style="text;strokeColor=none;fillColor=none;align=left;verticalAlign=top;spacingLeft=0;spacingRight=0;overflow=hidden;rotatable=0;points=[[0,0.5],[1,0.5]];portConstraint=eastwest;perimeterSpacing=0;fontSize=11;spacingTop=0;spacing=5;spacingBottom=0;html=1;fontFamily=Helvetica;" parent="eObDILiY486qWF8WniHs-0" vertex="1">
          <mxGeometry y="561" width="380" height="23" as="geometry" />
        </mxCell>
        <mxCell id="eObDILiY486qWF8WniHs-48" value="+ array calculOutput(clickArea)" style="text;strokeColor=none;fillColor=none;align=left;verticalAlign=top;spacingLeft=0;spacingRight=0;overflow=hidden;rotatable=0;points=[[0,0.5],[1,0.5]];portConstraint=eastwest;perimeterSpacing=0;fontSize=11;spacingTop=0;spacing=5;spacingBottom=0;html=1;fontFamily=Helvetica;" parent="eObDILiY486qWF8WniHs-0" vertex="1">
          <mxGeometry y="584" width="380" height="23" as="geometry" />
        </mxCell>
        <mxCell id="eObDILiY486qWF8WniHs-49" value="+ array formatTxt(arrayOfTxt)" style="text;strokeColor=none;fillColor=none;align=left;verticalAlign=top;spacingLeft=0;spacingRight=0;overflow=hidden;rotatable=0;points=[[0,0.5],[1,0.5]];portConstraint=eastwest;perimeterSpacing=0;fontSize=11;spacingTop=0;spacing=5;spacingBottom=0;html=1;fontFamily=Helvetica;" parent="eObDILiY486qWF8WniHs-0" vertex="1">
          <mxGeometry y="607" width="380" height="23" as="geometry" />
        </mxCell>
        <mxCell id="eObDILiY486qWF8WniHs-50" value="+ drawLine(x1,y1,x2,y2)" style="text;strokeColor=none;fillColor=none;align=left;verticalAlign=top;spacingLeft=0;spacingRight=0;overflow=hidden;rotatable=0;points=[[0,0.5],[1,0.5]];portConstraint=eastwest;perimeterSpacing=0;fontSize=11;spacingTop=0;spacing=5;spacingBottom=0;html=1;fontFamily=Helvetica;" parent="eObDILiY486qWF8WniHs-0" vertex="1">
          <mxGeometry y="630" width="380" height="23" as="geometry" />
        </mxCell>
        <mxCell id="eObDILiY486qWF8WniHs-51" value="+ drawCorner(height,leftCornerX,rightCornerX,y)" style="text;strokeColor=none;fillColor=none;align=left;verticalAlign=top;spacingLeft=0;spacingRight=0;overflow=hidden;rotatable=0;points=[[0,0.5],[1,0.5]];portConstraint=eastwest;perimeterSpacing=0;fontSize=11;spacingTop=0;spacing=5;spacingBottom=0;html=1;fontFamily=Helvetica;" parent="eObDILiY486qWF8WniHs-0" vertex="1">
          <mxGeometry y="653" width="380" height="23" as="geometry" />
        </mxCell>
        <mxCell id="eObDILiY486qWF8WniHs-52" value="+ drawBrackets(height,leftBracketX,rightBracketX,y)" style="text;strokeColor=none;fillColor=none;align=left;verticalAlign=top;spacingLeft=0;spacingRight=0;overflow=hidden;rotatable=0;points=[[0,0.5],[1,0.5]];portConstraint=eastwest;perimeterSpacing=0;fontSize=11;spacingTop=0;spacing=5;spacingBottom=0;html=1;fontFamily=Helvetica;" parent="eObDILiY486qWF8WniHs-0" vertex="1">
          <mxGeometry y="676" width="380" height="23" as="geometry" />
        </mxCell>
        <mxCell id="eObDILiY486qWF8WniHs-53" value="+ draw()" style="text;strokeColor=none;fillColor=none;align=left;verticalAlign=top;spacingLeft=0;spacingRight=0;overflow=hidden;rotatable=0;points=[[0,0.5],[1,0.5]];portConstraint=eastwest;perimeterSpacing=0;fontSize=11;spacingTop=0;spacing=5;spacingBottom=0;html=1;fontFamily=Helvetica;" parent="eObDILiY486qWF8WniHs-0" vertex="1">
          <mxGeometry y="699" width="380" height="23" as="geometry" />
        </mxCell>
        <mxCell id="eObDILiY486qWF8WniHs-54" value="+ int isClicked(e)" style="text;strokeColor=none;fillColor=none;align=left;verticalAlign=top;spacingLeft=0;spacingRight=0;overflow=hidden;rotatable=0;points=[[0,0.5],[1,0.5]];portConstraint=eastwest;perimeterSpacing=0;fontSize=11;spacingTop=0;spacing=5;spacingBottom=0;html=1;fontFamily=Helvetica;" parent="eObDILiY486qWF8WniHs-0" vertex="1">
          <mxGeometry y="722" width="380" height="23" as="geometry" />
        </mxCell>
        <mxCell id="eObDILiY486qWF8WniHs-55" value="+ majPos(x,y)" style="text;strokeColor=none;fillColor=none;align=left;verticalAlign=top;spacingLeft=0;spacingRight=0;overflow=hidden;rotatable=0;points=[[0,0.5],[1,0.5]];portConstraint=eastwest;perimeterSpacing=0;fontSize=11;spacingTop=0;spacing=5;spacingBottom=0;html=1;fontFamily=Helvetica;" parent="eObDILiY486qWF8WniHs-0" vertex="1">
          <mxGeometry y="745" width="380" height="23" as="geometry" />
        </mxCell>
        <mxCell id="eObDILiY486qWF8WniHs-56" value="+ majCoord()" style="text;strokeColor=none;fillColor=none;align=left;verticalAlign=top;spacingLeft=0;spacingRight=0;overflow=hidden;rotatable=0;points=[[0,0.5],[1,0.5]];portConstraint=eastwest;perimeterSpacing=0;fontSize=11;spacingTop=0;spacing=5;spacingBottom=0;html=1;fontFamily=Helvetica;" parent="eObDILiY486qWF8WniHs-0" vertex="1">
          <mxGeometry y="768" width="380" height="23" as="geometry" />
        </mxCell>
        <mxCell id="eObDILiY486qWF8WniHs-57" value="+ majTxt(txt)" style="text;strokeColor=none;fillColor=none;align=left;verticalAlign=top;spacingLeft=0;spacingRight=0;overflow=hidden;rotatable=0;points=[[0,0.5],[1,0.5]];portConstraint=eastwest;perimeterSpacing=0;fontSize=11;spacingTop=0;spacing=5;spacingBottom=0;html=1;fontFamily=Helvetica;" parent="eObDILiY486qWF8WniHs-0" vertex="1">
          <mxGeometry y="791" width="380" height="32" as="geometry" />
        </mxCell>
        <mxCell id="jReY5tnEvBA8gq-XODpn-18" value="" style="endArrow=block;endFill=0;endSize=12;html=1;rounded=0;exitX=0;exitY=0.75;exitDx=0;exitDy=0;" parent="WIyWlLk6GJQsqaUBKTNV-1" edge="1">
          <mxGeometry width="160" relative="1" as="geometry">
            <mxPoint x="520" y="161" as="sourcePoint" />
            <mxPoint x="440" y="160" as="targetPoint" />
          </mxGeometry>
        </mxCell>
        <mxCell id="jReY5tnEvBA8gq-XODpn-20" value="" style="endArrow=block;endFill=0;endSize=12;html=1;rounded=0;exitX=-0.006;exitY=-0.05;exitDx=0;exitDy=0;exitPerimeter=0;" parent="WIyWlLk6GJQsqaUBKTNV-1" edge="1" source="Cp5dXDAyoMlp6LhII3mg-16">
          <mxGeometry width="160" relative="1" as="geometry">
            <mxPoint x="520" y="61" as="sourcePoint" />
            <mxPoint x="440" y="60" as="targetPoint" />
          </mxGeometry>
        </mxCell>
        <mxCell id="Cp5dXDAyoMlp6LhII3mg-0" value="Perso" style="swimlane;fontStyle=0;childLayout=stackLayout;horizontal=1;startSize=30;horizontalStack=0;resizeParent=1;resizeParentMax=0;resizeLast=0;collapsible=1;marginBottom=0;whiteSpace=wrap;html=1;" vertex="1" parent="WIyWlLk6GJQsqaUBKTNV-1">
          <mxGeometry x="970" y="300" width="160" height="190" as="geometry" />
        </mxCell>
        <mxCell id="Cp5dXDAyoMlp6LhII3mg-1" value="&lt;i&gt;ATTRIBUTS&lt;/i&gt;" style="text;strokeColor=none;fillColor=none;align=left;verticalAlign=middle;spacingLeft=4;spacingRight=4;overflow=hidden;points=[[0,0.5],[1,0.5]];portConstraint=eastwest;rotatable=0;whiteSpace=wrap;html=1;" vertex="1" parent="Cp5dXDAyoMlp6LhII3mg-0">
          <mxGeometry y="30" width="160" height="20" as="geometry" />
        </mxCell>
        <mxCell id="Cp5dXDAyoMlp6LhII3mg-2" value="- x : integer" style="text;strokeColor=none;fillColor=none;align=left;verticalAlign=middle;spacingLeft=4;spacingRight=4;overflow=hidden;points=[[0,0.5],[1,0.5]];portConstraint=eastwest;rotatable=0;whiteSpace=wrap;html=1;" vertex="1" parent="Cp5dXDAyoMlp6LhII3mg-0">
          <mxGeometry y="50" width="160" height="20" as="geometry" />
        </mxCell>
        <mxCell id="Cp5dXDAyoMlp6LhII3mg-3" value="- y : integer" style="text;strokeColor=none;fillColor=none;align=left;verticalAlign=middle;spacingLeft=4;spacingRight=4;overflow=hidden;points=[[0,0.5],[1,0.5]];portConstraint=eastwest;rotatable=0;whiteSpace=wrap;html=1;" vertex="1" parent="Cp5dXDAyoMlp6LhII3mg-0">
          <mxGeometry y="70" width="160" height="20" as="geometry" />
        </mxCell>
        <mxCell id="Cp5dXDAyoMlp6LhII3mg-4" value="- orientation : string" style="text;strokeColor=none;fillColor=none;align=left;verticalAlign=middle;spacingLeft=4;spacingRight=4;overflow=hidden;points=[[0,0.5],[1,0.5]];portConstraint=eastwest;rotatable=0;whiteSpace=wrap;html=1;" vertex="1" parent="Cp5dXDAyoMlp6LhII3mg-0">
          <mxGeometry y="90" width="160" height="20" as="geometry" />
        </mxCell>
        <mxCell id="Cp5dXDAyoMlp6LhII3mg-5" value="&lt;i&gt;CONSTRUCTEUR&lt;/i&gt;" style="text;strokeColor=none;fillColor=none;align=left;verticalAlign=middle;spacingLeft=4;spacingRight=4;overflow=hidden;points=[[0,0.5],[1,0.5]];portConstraint=eastwest;rotatable=0;whiteSpace=wrap;html=1;" vertex="1" parent="Cp5dXDAyoMlp6LhII3mg-0">
          <mxGeometry y="110" width="160" height="20" as="geometry" />
        </mxCell>
        <mxCell id="Cp5dXDAyoMlp6LhII3mg-6" value="&lt;i&gt;+ &lt;/i&gt;Perso()&lt;span style=&quot;white-space: pre;&quot;&gt;&#x9;&lt;/span&gt;" style="text;strokeColor=none;fillColor=none;align=left;verticalAlign=middle;spacingLeft=4;spacingRight=4;overflow=hidden;points=[[0,0.5],[1,0.5]];portConstraint=eastwest;rotatable=0;whiteSpace=wrap;html=1;" vertex="1" parent="Cp5dXDAyoMlp6LhII3mg-0">
          <mxGeometry y="130" width="160" height="20" as="geometry" />
        </mxCell>
        <mxCell id="Cp5dXDAyoMlp6LhII3mg-7" value="&lt;i&gt;ENCAPSULATION&lt;/i&gt;" style="text;strokeColor=none;fillColor=none;align=left;verticalAlign=middle;spacingLeft=4;spacingRight=4;overflow=hidden;points=[[0,0.5],[1,0.5]];portConstraint=eastwest;rotatable=0;whiteSpace=wrap;html=1;" vertex="1" parent="Cp5dXDAyoMlp6LhII3mg-0">
          <mxGeometry y="150" width="160" height="20" as="geometry" />
        </mxCell>
        <mxCell id="Cp5dXDAyoMlp6LhII3mg-8" value="+ get&amp;amp;set : x, y, orientation" style="text;strokeColor=none;fillColor=none;align=left;verticalAlign=middle;spacingLeft=4;spacingRight=4;overflow=hidden;points=[[0,0.5],[1,0.5]];portConstraint=eastwest;rotatable=0;whiteSpace=wrap;html=1;" vertex="1" parent="Cp5dXDAyoMlp6LhII3mg-0">
          <mxGeometry y="170" width="160" height="20" as="geometry" />
        </mxCell>
        <mxCell id="Cp5dXDAyoMlp6LhII3mg-13" value="Use" style="endArrow=open;endSize=12;dashed=1;html=1;rounded=0;exitX=1;exitY=0.5;exitDx=0;exitDy=0;entryX=0;entryY=0.5;entryDx=0;entryDy=0;" edge="1" parent="WIyWlLk6GJQsqaUBKTNV-1" target="Cp5dXDAyoMlp6LhII3mg-2" source="Cp5dXDAyoMlp6LhII3mg-18">
          <mxGeometry width="160" relative="1" as="geometry">
            <mxPoint x="660" y="85" as="sourcePoint" />
            <mxPoint x="930" y="350" as="targetPoint" />
          </mxGeometry>
        </mxCell>
        <mxCell id="Cp5dXDAyoMlp6LhII3mg-14" value="Break" style="swimlane;fontStyle=0;childLayout=stackLayout;horizontal=1;startSize=30;horizontalStack=0;resizeParent=1;resizeParentMax=0;resizeLast=0;collapsible=1;marginBottom=0;whiteSpace=wrap;html=1;" vertex="1" parent="WIyWlLk6GJQsqaUBKTNV-1">
          <mxGeometry x="722" y="10" width="160" height="190" as="geometry" />
        </mxCell>
        <mxCell id="Cp5dXDAyoMlp6LhII3mg-15" value="&lt;i&gt;ATTRIBUTS&lt;/i&gt;" style="text;strokeColor=none;fillColor=none;align=left;verticalAlign=middle;spacingLeft=4;spacingRight=4;overflow=hidden;points=[[0,0.5],[1,0.5]];portConstraint=eastwest;rotatable=0;whiteSpace=wrap;html=1;" vertex="1" parent="Cp5dXDAyoMlp6LhII3mg-14">
          <mxGeometry y="30" width="160" height="20" as="geometry" />
        </mxCell>
        <mxCell id="Cp5dXDAyoMlp6LhII3mg-16" value="- x : integer" style="text;strokeColor=none;fillColor=none;align=left;verticalAlign=middle;spacingLeft=4;spacingRight=4;overflow=hidden;points=[[0,0.5],[1,0.5]];portConstraint=eastwest;rotatable=0;whiteSpace=wrap;html=1;" vertex="1" parent="Cp5dXDAyoMlp6LhII3mg-14">
          <mxGeometry y="50" width="160" height="20" as="geometry" />
        </mxCell>
        <mxCell id="Cp5dXDAyoMlp6LhII3mg-17" value="- y : integer" style="text;strokeColor=none;fillColor=none;align=left;verticalAlign=middle;spacingLeft=4;spacingRight=4;overflow=hidden;points=[[0,0.5],[1,0.5]];portConstraint=eastwest;rotatable=0;whiteSpace=wrap;html=1;" vertex="1" parent="Cp5dXDAyoMlp6LhII3mg-14">
          <mxGeometry y="70" width="160" height="20" as="geometry" />
        </mxCell>
        <mxCell id="Cp5dXDAyoMlp6LhII3mg-18" value="- orientation : string" style="text;strokeColor=none;fillColor=none;align=left;verticalAlign=middle;spacingLeft=4;spacingRight=4;overflow=hidden;points=[[0,0.5],[1,0.5]];portConstraint=eastwest;rotatable=0;whiteSpace=wrap;html=1;" vertex="1" parent="Cp5dXDAyoMlp6LhII3mg-14">
          <mxGeometry y="90" width="160" height="20" as="geometry" />
        </mxCell>
        <mxCell id="Cp5dXDAyoMlp6LhII3mg-19" value="&lt;i&gt;CONSTRUCTEUR&lt;/i&gt;" style="text;strokeColor=none;fillColor=none;align=left;verticalAlign=middle;spacingLeft=4;spacingRight=4;overflow=hidden;points=[[0,0.5],[1,0.5]];portConstraint=eastwest;rotatable=0;whiteSpace=wrap;html=1;" vertex="1" parent="Cp5dXDAyoMlp6LhII3mg-14">
          <mxGeometry y="110" width="160" height="20" as="geometry" />
        </mxCell>
        <mxCell id="Cp5dXDAyoMlp6LhII3mg-20" value="&lt;i&gt;+ &lt;/i&gt;Perso()&lt;span style=&quot;white-space: pre;&quot;&gt;&#x9;&lt;/span&gt;" style="text;strokeColor=none;fillColor=none;align=left;verticalAlign=middle;spacingLeft=4;spacingRight=4;overflow=hidden;points=[[0,0.5],[1,0.5]];portConstraint=eastwest;rotatable=0;whiteSpace=wrap;html=1;" vertex="1" parent="Cp5dXDAyoMlp6LhII3mg-14">
          <mxGeometry y="130" width="160" height="20" as="geometry" />
        </mxCell>
        <mxCell id="Cp5dXDAyoMlp6LhII3mg-21" value="&lt;i&gt;ENCAPSULATION&lt;/i&gt;" style="text;strokeColor=none;fillColor=none;align=left;verticalAlign=middle;spacingLeft=4;spacingRight=4;overflow=hidden;points=[[0,0.5],[1,0.5]];portConstraint=eastwest;rotatable=0;whiteSpace=wrap;html=1;" vertex="1" parent="Cp5dXDAyoMlp6LhII3mg-14">
          <mxGeometry y="150" width="160" height="20" as="geometry" />
        </mxCell>
        <mxCell id="Cp5dXDAyoMlp6LhII3mg-22" value="+ get&amp;amp;set : x, y, orientation" style="text;strokeColor=none;fillColor=none;align=left;verticalAlign=middle;spacingLeft=4;spacingRight=4;overflow=hidden;points=[[0,0.5],[1,0.5]];portConstraint=eastwest;rotatable=0;whiteSpace=wrap;html=1;" vertex="1" parent="Cp5dXDAyoMlp6LhII3mg-14">
          <mxGeometry y="170" width="160" height="20" as="geometry" />
        </mxCell>
        <mxCell id="Cp5dXDAyoMlp6LhII3mg-23" value="Loop" style="swimlane;fontStyle=0;childLayout=stackLayout;horizontal=1;startSize=30;horizontalStack=0;resizeParent=1;resizeParentMax=0;resizeLast=0;collapsible=1;marginBottom=0;whiteSpace=wrap;html=1;" vertex="1" parent="WIyWlLk6GJQsqaUBKTNV-1">
          <mxGeometry x="520" y="81" width="160" height="190" as="geometry" />
        </mxCell>
        <mxCell id="Cp5dXDAyoMlp6LhII3mg-24" value="&lt;i&gt;ATTRIBUTS&lt;/i&gt;" style="text;strokeColor=none;fillColor=none;align=left;verticalAlign=middle;spacingLeft=4;spacingRight=4;overflow=hidden;points=[[0,0.5],[1,0.5]];portConstraint=eastwest;rotatable=0;whiteSpace=wrap;html=1;" vertex="1" parent="Cp5dXDAyoMlp6LhII3mg-23">
          <mxGeometry y="30" width="160" height="20" as="geometry" />
        </mxCell>
        <mxCell id="Cp5dXDAyoMlp6LhII3mg-25" value="- x : integer" style="text;strokeColor=none;fillColor=none;align=left;verticalAlign=middle;spacingLeft=4;spacingRight=4;overflow=hidden;points=[[0,0.5],[1,0.5]];portConstraint=eastwest;rotatable=0;whiteSpace=wrap;html=1;" vertex="1" parent="Cp5dXDAyoMlp6LhII3mg-23">
          <mxGeometry y="50" width="160" height="20" as="geometry" />
        </mxCell>
        <mxCell id="Cp5dXDAyoMlp6LhII3mg-26" value="- y : integer" style="text;strokeColor=none;fillColor=none;align=left;verticalAlign=middle;spacingLeft=4;spacingRight=4;overflow=hidden;points=[[0,0.5],[1,0.5]];portConstraint=eastwest;rotatable=0;whiteSpace=wrap;html=1;" vertex="1" parent="Cp5dXDAyoMlp6LhII3mg-23">
          <mxGeometry y="70" width="160" height="20" as="geometry" />
        </mxCell>
        <mxCell id="Cp5dXDAyoMlp6LhII3mg-27" value="- orientation : string" style="text;strokeColor=none;fillColor=none;align=left;verticalAlign=middle;spacingLeft=4;spacingRight=4;overflow=hidden;points=[[0,0.5],[1,0.5]];portConstraint=eastwest;rotatable=0;whiteSpace=wrap;html=1;" vertex="1" parent="Cp5dXDAyoMlp6LhII3mg-23">
          <mxGeometry y="90" width="160" height="20" as="geometry" />
        </mxCell>
        <mxCell id="Cp5dXDAyoMlp6LhII3mg-28" value="&lt;i&gt;CONSTRUCTEUR&lt;/i&gt;" style="text;strokeColor=none;fillColor=none;align=left;verticalAlign=middle;spacingLeft=4;spacingRight=4;overflow=hidden;points=[[0,0.5],[1,0.5]];portConstraint=eastwest;rotatable=0;whiteSpace=wrap;html=1;" vertex="1" parent="Cp5dXDAyoMlp6LhII3mg-23">
          <mxGeometry y="110" width="160" height="20" as="geometry" />
        </mxCell>
        <mxCell id="Cp5dXDAyoMlp6LhII3mg-29" value="&lt;i&gt;+ &lt;/i&gt;Perso()&lt;span style=&quot;white-space: pre;&quot;&gt;&#x9;&lt;/span&gt;" style="text;strokeColor=none;fillColor=none;align=left;verticalAlign=middle;spacingLeft=4;spacingRight=4;overflow=hidden;points=[[0,0.5],[1,0.5]];portConstraint=eastwest;rotatable=0;whiteSpace=wrap;html=1;" vertex="1" parent="Cp5dXDAyoMlp6LhII3mg-23">
          <mxGeometry y="130" width="160" height="20" as="geometry" />
        </mxCell>
        <mxCell id="Cp5dXDAyoMlp6LhII3mg-30" value="&lt;i&gt;ENCAPSULATION&lt;/i&gt;" style="text;strokeColor=none;fillColor=none;align=left;verticalAlign=middle;spacingLeft=4;spacingRight=4;overflow=hidden;points=[[0,0.5],[1,0.5]];portConstraint=eastwest;rotatable=0;whiteSpace=wrap;html=1;" vertex="1" parent="Cp5dXDAyoMlp6LhII3mg-23">
          <mxGeometry y="150" width="160" height="20" as="geometry" />
        </mxCell>
        <mxCell id="Cp5dXDAyoMlp6LhII3mg-31" value="+ get&amp;amp;set : x, y, orientation" style="text;strokeColor=none;fillColor=none;align=left;verticalAlign=middle;spacingLeft=4;spacingRight=4;overflow=hidden;points=[[0,0.5],[1,0.5]];portConstraint=eastwest;rotatable=0;whiteSpace=wrap;html=1;" vertex="1" parent="Cp5dXDAyoMlp6LhII3mg-23">
          <mxGeometry y="170" width="160" height="20" as="geometry" />
        </mxCell>
        <mxCell id="Cp5dXDAyoMlp6LhII3mg-32" value="Use" style="endArrow=open;endSize=12;dashed=1;html=1;rounded=0;exitX=1;exitY=0.5;exitDx=0;exitDy=0;entryX=0;entryY=0.5;entryDx=0;entryDy=0;" edge="1" parent="WIyWlLk6GJQsqaUBKTNV-1" source="Cp5dXDAyoMlp6LhII3mg-28" target="Cp5dXDAyoMlp6LhII3mg-3">
          <mxGeometry width="160" relative="1" as="geometry">
            <mxPoint x="680" y="310" as="sourcePoint" />
            <mxPoint x="866" y="560" as="targetPoint" />
          </mxGeometry>
        </mxCell>
        <mxCell id="Cp5dXDAyoMlp6LhII3mg-33" value="&amp;lt;&amp;lt;abstract&amp;gt;&amp;gt;&lt;br&gt;Shape" style="swimlane;fontStyle=0;childLayout=stackLayout;horizontal=1;startSize=30;horizontalStack=0;resizeParent=1;resizeParentMax=0;resizeLast=0;collapsible=1;marginBottom=0;whiteSpace=wrap;html=1;" vertex="1" parent="WIyWlLk6GJQsqaUBKTNV-1">
          <mxGeometry x="700" y="404" width="190" height="429" as="geometry" />
        </mxCell>
        <mxCell id="Cp5dXDAyoMlp6LhII3mg-34" value="&lt;i&gt;ATTRIBUTS&lt;/i&gt;" style="text;strokeColor=none;fillColor=none;align=left;verticalAlign=middle;spacingLeft=4;spacingRight=4;overflow=hidden;points=[[0,0.5],[1,0.5]];portConstraint=eastwest;rotatable=0;whiteSpace=wrap;html=1;" vertex="1" parent="Cp5dXDAyoMlp6LhII3mg-33">
          <mxGeometry y="30" width="190" height="20" as="geometry" />
        </mxCell>
        <mxCell id="Cp5dXDAyoMlp6LhII3mg-42" value="- _x : int" style="text;strokeColor=none;fillColor=none;align=left;verticalAlign=middle;spacingLeft=5;spacingRight=0;overflow=hidden;rotatable=0;points=[[0,0.5],[1,0.5]];portConstraint=eastwest;perimeterSpacing=0;fontSize=11;spacingTop=0;spacing=5;spacingBottom=0;html=1;horizontal=1;fontStyle=0;rounded=0;fontFamily=Helvetica;" vertex="1" parent="Cp5dXDAyoMlp6LhII3mg-33">
          <mxGeometry y="50" width="190" height="23" as="geometry" />
        </mxCell>
        <mxCell id="Cp5dXDAyoMlp6LhII3mg-43" value="- _y : int" style="text;strokeColor=none;fillColor=none;align=left;verticalAlign=middle;spacingLeft=5;spacingRight=0;overflow=hidden;rotatable=0;points=[[0,0.5],[1,0.5]];portConstraint=eastwest;perimeterSpacing=0;fontSize=11;spacingTop=0;spacing=5;spacingBottom=0;html=1;fontFamily=Helvetica;" vertex="1" parent="Cp5dXDAyoMlp6LhII3mg-33">
          <mxGeometry y="73" width="190" height="23" as="geometry" />
        </mxCell>
        <mxCell id="Cp5dXDAyoMlp6LhII3mg-44" value="- _txt : string" style="text;strokeColor=none;fillColor=none;align=left;verticalAlign=middle;spacingLeft=5;spacingRight=0;overflow=hidden;rotatable=0;points=[[0,0.5],[1,0.5]];portConstraint=eastwest;perimeterSpacing=0;fontSize=11;spacingTop=0;spacing=5;spacingBottom=0;html=1;fontFamily=Helvetica;" vertex="1" parent="Cp5dXDAyoMlp6LhII3mg-33">
          <mxGeometry y="96" width="190" height="23" as="geometry" />
        </mxCell>
        <mxCell id="Cp5dXDAyoMlp6LhII3mg-45" value="- _type : int" style="text;strokeColor=none;fillColor=none;align=left;verticalAlign=middle;spacingLeft=5;spacingRight=0;overflow=hidden;rotatable=0;points=[[0,0.5],[1,0.5]];portConstraint=eastwest;perimeterSpacing=0;fontSize=11;spacingTop=0;spacing=5;spacingBottom=0;html=1;fontFamily=Helvetica;" vertex="1" parent="Cp5dXDAyoMlp6LhII3mg-33">
          <mxGeometry y="119" width="190" height="23" as="geometry" />
        </mxCell>
        <mxCell id="Cp5dXDAyoMlp6LhII3mg-46" value="- _height : int" style="text;strokeColor=none;fillColor=none;align=left;verticalAlign=middle;spacingLeft=5;spacingRight=0;overflow=hidden;rotatable=0;points=[[0,0.5],[1,0.5]];portConstraint=eastwest;perimeterSpacing=0;fontSize=11;spacingTop=0;spacing=5;spacingBottom=0;html=1;fontFamily=Helvetica;" vertex="1" parent="Cp5dXDAyoMlp6LhII3mg-33">
          <mxGeometry y="142" width="190" height="23" as="geometry" />
        </mxCell>
        <mxCell id="Cp5dXDAyoMlp6LhII3mg-47" value="- _size : int" style="text;strokeColor=none;fillColor=none;align=left;verticalAlign=middle;spacingLeft=5;spacingRight=0;overflow=hidden;rotatable=0;points=[[0,0.5],[1,0.5]];portConstraint=eastwest;perimeterSpacing=0;fontSize=11;spacingTop=0;spacing=5;spacingBottom=0;html=1;fontFamily=Helvetica;" vertex="1" parent="Cp5dXDAyoMlp6LhII3mg-33">
          <mxGeometry y="165" width="190" height="23" as="geometry" />
        </mxCell>
        <mxCell id="Cp5dXDAyoMlp6LhII3mg-54" value="- _symbolParam : array" style="text;strokeColor=none;fillColor=none;align=left;verticalAlign=middle;spacingLeft=5;spacingRight=0;overflow=hidden;rotatable=0;points=[[0,0.5],[1,0.5]];portConstraint=eastwest;perimeterSpacing=0;fontSize=11;spacingTop=0;spacing=5;spacingBottom=0;html=1;fontFamily=Helvetica;" vertex="1" parent="Cp5dXDAyoMlp6LhII3mg-33">
          <mxGeometry y="188" width="190" height="23" as="geometry" />
        </mxCell>
        <mxCell id="Cp5dXDAyoMlp6LhII3mg-53" value="- _symbol : Image" style="text;strokeColor=none;fillColor=none;align=left;verticalAlign=middle;spacingLeft=5;spacingRight=0;overflow=hidden;rotatable=0;points=[[0,0.5],[1,0.5]];portConstraint=eastwest;perimeterSpacing=0;fontSize=11;spacingTop=0;spacing=5;spacingBottom=0;html=1;fontFamily=Helvetica;" vertex="1" parent="Cp5dXDAyoMlp6LhII3mg-33">
          <mxGeometry y="211" width="190" height="23" as="geometry" />
        </mxCell>
        <mxCell id="Cp5dXDAyoMlp6LhII3mg-52" value="- _context : string" style="text;strokeColor=none;fillColor=none;align=left;verticalAlign=middle;spacingLeft=5;spacingRight=0;overflow=hidden;rotatable=0;points=[[0,0.5],[1,0.5]];portConstraint=eastwest;perimeterSpacing=0;fontSize=11;spacingTop=0;spacing=5;spacingBottom=0;html=1;fontFamily=Helvetica;" vertex="1" parent="Cp5dXDAyoMlp6LhII3mg-33">
          <mxGeometry y="234" width="190" height="23" as="geometry" />
        </mxCell>
        <mxCell id="Cp5dXDAyoMlp6LhII3mg-51" value="- _canvas : canvas" style="text;strokeColor=none;fillColor=none;align=left;verticalAlign=middle;spacingLeft=5;spacingRight=0;overflow=hidden;rotatable=0;points=[[0,0.5],[1,0.5]];portConstraint=eastwest;perimeterSpacing=0;fontSize=11;spacingTop=0;spacing=5;spacingBottom=0;html=1;fontFamily=Helvetica;" vertex="1" parent="Cp5dXDAyoMlp6LhII3mg-33">
          <mxGeometry y="257" width="190" height="23" as="geometry" />
        </mxCell>
        <mxCell id="Cp5dXDAyoMlp6LhII3mg-50" value="- _output : array" style="text;strokeColor=none;fillColor=none;align=left;verticalAlign=middle;spacingLeft=5;spacingRight=0;overflow=hidden;rotatable=0;points=[[0,0.5],[1,0.5]];portConstraint=eastwest;perimeterSpacing=0;fontSize=11;spacingTop=0;spacing=5;spacingBottom=0;html=1;fontFamily=Helvetica;" vertex="1" parent="Cp5dXDAyoMlp6LhII3mg-33">
          <mxGeometry y="280" width="190" height="23" as="geometry" />
        </mxCell>
        <mxCell id="Cp5dXDAyoMlp6LhII3mg-49" value="- _allCoord : array" style="text;strokeColor=none;fillColor=none;align=left;verticalAlign=middle;spacingLeft=5;spacingRight=0;overflow=hidden;rotatable=0;points=[[0,0.5],[1,0.5]];portConstraint=eastwest;perimeterSpacing=0;fontSize=11;spacingTop=0;spacing=5;spacingBottom=0;html=1;fontFamily=Helvetica;" vertex="1" parent="Cp5dXDAyoMlp6LhII3mg-33">
          <mxGeometry y="303" width="190" height="23" as="geometry" />
        </mxCell>
        <mxCell id="Cp5dXDAyoMlp6LhII3mg-48" value="- _clickArea : int" style="text;strokeColor=none;fillColor=none;align=left;verticalAlign=middle;spacingLeft=5;spacingRight=0;overflow=hidden;rotatable=0;points=[[0,0.5],[1,0.5]];portConstraint=eastwest;perimeterSpacing=0;fontSize=11;spacingTop=0;spacing=5;spacingBottom=0;html=1;fontFamily=Helvetica;" vertex="1" parent="Cp5dXDAyoMlp6LhII3mg-33">
          <mxGeometry y="326" width="190" height="23" as="geometry" />
        </mxCell>
        <mxCell id="Cp5dXDAyoMlp6LhII3mg-38" value="&lt;i&gt;CONSTRUCTEUR&lt;/i&gt;" style="text;strokeColor=none;fillColor=none;align=left;verticalAlign=middle;spacingLeft=4;spacingRight=4;overflow=hidden;points=[[0,0.5],[1,0.5]];portConstraint=eastwest;rotatable=0;whiteSpace=wrap;html=1;" vertex="1" parent="Cp5dXDAyoMlp6LhII3mg-33">
          <mxGeometry y="349" width="190" height="20" as="geometry" />
        </mxCell>
        <mxCell id="Cp5dXDAyoMlp6LhII3mg-39" value="&lt;i&gt;+ Shape&lt;/i&gt;(canvas, x, y, txt)&lt;span style=&quot;white-space: pre;&quot;&gt;&#x9;&lt;/span&gt;" style="text;strokeColor=none;fillColor=none;align=left;verticalAlign=middle;spacingLeft=4;spacingRight=4;overflow=hidden;points=[[0,0.5],[1,0.5]];portConstraint=eastwest;rotatable=0;whiteSpace=wrap;html=1;" vertex="1" parent="Cp5dXDAyoMlp6LhII3mg-33">
          <mxGeometry y="369" width="190" height="20" as="geometry" />
        </mxCell>
        <mxCell id="Cp5dXDAyoMlp6LhII3mg-40" value="&lt;i&gt;ENCAPSULATION&lt;/i&gt;" style="text;strokeColor=none;fillColor=none;align=left;verticalAlign=middle;spacingLeft=4;spacingRight=4;overflow=hidden;points=[[0,0.5],[1,0.5]];portConstraint=eastwest;rotatable=0;whiteSpace=wrap;html=1;" vertex="1" parent="Cp5dXDAyoMlp6LhII3mg-33">
          <mxGeometry y="389" width="190" height="20" as="geometry" />
        </mxCell>
        <mxCell id="Cp5dXDAyoMlp6LhII3mg-41" value="+ get&amp;amp;set : x, y, orientation" style="text;strokeColor=none;fillColor=none;align=left;verticalAlign=middle;spacingLeft=4;spacingRight=4;overflow=hidden;points=[[0,0.5],[1,0.5]];portConstraint=eastwest;rotatable=0;whiteSpace=wrap;html=1;" vertex="1" parent="Cp5dXDAyoMlp6LhII3mg-33">
          <mxGeometry y="409" width="190" height="20" as="geometry" />
        </mxCell>
      </root>
    </mxGraphModel>
  </diagram>
</mxfile>
